<svg preserveAspectRatio="none" width="100%" height="100%" overflow="visible" style="display: block;" viewBox="0 0 288 62" fill="none" xmlns="http://www.w3.org/2000/svg">
<g id="frog.svg" clip-path="url(#clip0_1_356)">
<path id="Vector" d="M287.938 0H0V61.7009H287.938V0Z" fill="var(--fill-0, white)"/>
<path id="Vector_2" d="M4.20257 16.9918V20.7336H0V25.6128H4.20257V45.2271C4.20257 46.7153 5.72503 47.9076 7.6394 47.9076C9.55377 47.9076 11.1124 46.7243 11.1124 45.2362V25.6218H16.6987V20.7427H11.1124V16.9918C11.1124 12.4785 14.6095 11.646 19.3969 12.7225V7.84328C12.656 6.32159 4.20257 7.02907 4.20257 16.9918ZM25.7279 25.6218H25.5832V20.7427H19.9909V45.2423C19.9909 46.7305 21.4982 47.9229 23.4277 47.9229C25.3571 47.9229 26.8916 46.7305 26.8916 45.2423V32.9071C26.8916 27.0886 30.639 25.6097 35.1762 25.6097V20.1206C31.0731 20.0992 27.2293 21.4684 25.7279 25.6218ZM74.0244 20.1328C67.3617 20.1328 61.9654 23.4719 61.9654 30.0345C61.9654 33.5292 63.4999 36.1091 65.9449 37.7589C65.764 37.8778 65.5891 37.9997 65.4172 38.1279C62.3874 40.3936 62.0618 44.3 64.8384 46.4317C63.4788 47.6514 61.5523 49.8349 61.5523 52.8783C61.5523 57.7086 66.0142 60.8283 74.0213 60.8283C82.0286 60.8283 88.1425 57.0317 88.1425 51.1858C88.1425 45.3399 84.1268 43.0437 76.801 43.0437H72.0105C68.6551 43.0437 68.9415 40.6986 70.0479 39.6892C70.1052 39.6374 70.1655 39.5885 70.2319 39.5367C71.4787 39.8018 72.7503 39.9307 74.0244 39.921C80.6901 39.921 86.0834 36.5665 86.0834 30.0253C86.0985 28.6709 85.8347 27.328 85.3086 26.0823C86.329 25.8 87.3802 25.6474 88.4379 25.628V20.7488C85.4745 20.7488 83.5631 20.95 81.5372 21.9472C79.4841 20.7244 76.8704 20.1175 74.0244 20.1175V20.1328ZM70.3614 47.932H76.795C79.4359 47.932 81.2357 48.7615 81.2357 51.1858C81.2357 54.4427 78.4742 55.9431 74.0002 55.9431C67.1326 55.9277 67.5426 50.2191 70.3614 47.9167V47.932ZM74.0244 35.0418C71.1755 35.0418 68.8601 33.9226 68.8601 30.0315C68.8601 26.1403 71.1755 25.0212 74.0244 25.0212C76.8734 25.0212 79.1917 26.1372 79.1917 30.0315C79.1917 33.9256 76.8793 35.0418 74.0244 35.0418ZM47.7146 20.1175C40.2259 20.1175 35.6555 24.8046 35.6555 34.0171C35.6555 43.2297 40.232 47.9167 47.7146 47.9167C55.1972 47.9167 59.7737 43.2297 59.7737 34.0171C59.7737 24.8046 55.2063 20.1175 47.7146 20.1175ZM47.7146 43.0284C44.8626 43.0284 42.5503 41.8574 42.5503 34.0171C42.5503 26.1769 44.8777 25.012 47.7146 25.012C50.5514 25.012 52.8789 26.1799 52.8789 34.0171C52.8789 41.8544 50.5666 43.0284 47.7146 43.0284Z" fill="var(--fill-0, #050038)"/>
</g>
<defs>
<clipPath id="clip0_1_356">
<rect width="287.938" height="61.7009" fill="white"/>
</clipPath>
</defs>
</svg>
