<svg preserveAspectRatio="none" width="100%" height="100%" overflow="visible" style="display: block;" viewBox="0 0 288 62" fill="none" xmlns="http://www.w3.org/2000/svg">
<g id="Docusign-Testimonials-280-60-Baseline.svg">
<path id="Vector" d="M13.3361 41.1827C19.838 41.1827 22.3742 37.2123 22.3742 30.4194C22.3742 23.6278 19.4082 18.8924 13.5266 18.8924H6.93477V41.1827H13.3361ZM0 12.962H14.3877C23.5203 12.962 29.4019 20.3281 29.4019 30.4194C29.4019 35.9672 27.5364 40.8474 23.9501 43.8606C21.4155 45.9639 18.1157 47.1604 13.8132 47.1604H0V12.962ZM49.2079 34.917C49.2079 30.1328 46.9613 26.8803 42.9925 26.8803C38.9749 26.8803 36.774 30.1328 36.774 34.917C36.774 39.6997 38.9749 42.9034 42.9925 42.9034C46.9613 42.9034 49.2079 39.6997 49.2079 34.917ZM30.1762 34.917C30.1762 27.5982 35.3887 21.9543 42.9925 21.9543C50.5948 21.9543 55.8073 27.5982 55.8073 34.917C55.8073 42.2328 50.5948 47.8781 42.9925 47.8781C35.3871 47.8781 30.1746 42.2344 30.1746 34.917M56.8818 34.917C56.8818 27.5982 61.6645 21.9543 69.1236 21.9543C75.4853 21.9543 79.4053 25.6382 80.2665 30.9467H73.9063C73.4765 28.7946 71.803 27.1669 69.4117 27.1669C65.49 27.1669 63.4828 30.1816 63.4828 34.917C63.4828 39.5564 65.3468 42.6657 69.3156 42.6657C71.9462 42.6657 73.8117 41.2787 74.2416 38.5049H80.5058C80.0759 43.7173 76.0096 47.8781 69.459 47.8781C61.7133 47.8781 56.8818 42.2344 56.8818 34.917ZM97.4388 47.1618V44.2919H97.2955C95.622 46.54 93.7093 47.8309 90.2662 47.8309C84.8145 47.8309 81.754 44.3407 81.754 38.9819V22.6235H88.2086V37.8815C88.2086 40.7514 89.5012 42.3304 92.2735 42.3304C95.3339 42.3304 97.1995 40.035 97.1995 36.7826V22.6235H103.703V47.1618H97.4388ZM135.388 47.1618H141.889V22.6235H135.388V47.1618ZM135.388 19.1941H141.889V13.1129H135.388V19.1941ZM161.755 33.8151C161.755 30.2288 159.842 27.1683 155.921 27.1683C152.621 27.1683 150.422 29.7502 150.422 33.8638C150.422 38.0247 152.621 40.4649 155.97 40.4649C160.082 40.4649 161.755 37.4516 161.755 33.8166M144.588 47.8781H151.041C151.568 49.4084 152.953 50.6048 155.966 50.6048C159.649 50.6048 161.419 48.8353 161.419 45.4868V42.8075H161.275C159.839 44.4337 157.976 45.6774 154.866 45.6774C149.416 45.6774 144.06 41.3732 144.06 33.9599C144.06 26.641 148.459 21.9543 154.676 21.9543C157.736 21.9543 159.983 23.1492 161.466 25.2069H161.562V22.6235H167.825V45.2948C167.825 48.7393 166.725 51.0819 164.909 52.7569C162.851 54.6697 159.696 55.5308 156.063 55.5308C149.368 55.5308 145.255 52.6609 144.586 47.8781M176.977 25.972H177.12C178.794 23.3413 181.042 21.9543 184.389 21.9543C189.458 21.9543 192.852 25.7799 192.852 31.1371V47.1604H186.349V32.0943C186.349 29.4637 184.818 27.5982 182.093 27.5982C179.224 27.5982 177.12 29.8935 177.12 33.242V47.1604H170.616V22.6235H176.977V25.972ZM120.568 26.5451C115.498 25.4476 113.107 24.6338 113.107 21.8584C113.107 19.4197 115.545 17.8407 119.276 17.8407C122.68 17.8407 125.282 19.438 125.815 22.6235H132.484C131.806 15.9828 126.879 12.3402 119.323 12.3402C111.722 12.3402 106.221 15.8319 106.221 22.5762C106.221 29.703 111.815 31.3292 117.937 32.7162C123.149 33.9127 126.401 34.5817 126.401 37.9287C126.401 41.0867 123.293 42.3304 119.755 42.3304C114.878 42.3304 112.534 40.7041 112.055 36.5905H105.265C105.504 43.8133 110.764 47.9254 120.041 47.9254C127.74 47.9254 133.335 44.0526 133.335 37.1164C133.335 29.7502 127.596 28.0768 120.568 26.5451Z" fill="var(--fill-0, #050038)"/>
</g>
</svg>
