<svg preserveAspectRatio="none" width="100%" height="100%" overflow="visible" style="display: block;" viewBox="0 0 928 630" fill="none" xmlns="http://www.w3.org/2000/svg">
<g id="Line">
<path id="Line_2" d="M4.33867 612.875H924.963V622.172C924.963 626.459 921.487 629.934 917.2 629.934H12.101C7.81399 629.934 4.33867 626.459 4.33867 622.172V612.875Z" fill="var(--fill-0, #1B1B1B)"/>
<g id="Line_3">
<mask id="path-2-inside-1_1_402" fill="white">
<path fill-rule="evenodd" clip-rule="evenodd" d="M2.36465 629.676C0.763367 627.79 0 625.322 0 622.638V30.924C0 13.8451 13.6454 0 30.4778 0H897.518C914.35 0 927.996 13.8451 927.996 30.924V622.638C927.996 625.338 927.248 627.785 925.631 629.676"/>
</mask>
<path d="M2.36465 629.676L4.0553 628.24C2.86052 626.833 2.21781 624.909 2.21781 622.638H0H-2.21781C-2.21781 625.736 -1.33378 628.746 0.674012 631.111L2.36465 629.676ZM0 622.638H2.21781V30.924H0H-2.21781V622.638H0ZM0 30.924H2.21781C2.21781 15.0395 14.9005 2.21781 30.4778 2.21781V0V-2.21781C12.3902 -2.21781 -2.21781 12.6508 -2.21781 30.924H0ZM30.4778 0V2.21781H897.518V0V-2.21781H30.4778V0ZM897.518 0V2.21781C913.095 2.21781 925.778 15.0395 925.778 30.924H927.996H930.213C930.213 12.6508 915.605 -2.21781 897.518 -2.21781V0ZM927.996 30.924H925.778V622.638H927.996H930.213V30.924H927.996ZM927.996 622.638H925.778C925.778 624.931 925.148 626.829 923.946 628.234L925.631 629.676L927.316 631.118C929.349 628.742 930.213 625.744 930.213 622.638H927.996Z" fill="var(--stroke-0, #1B1B1B)" mask="url(#path-2-inside-1_1_402)"/>
</g>
<path id="Line_4" fill-rule="evenodd" clip-rule="evenodd" d="M924.159 628.538H925.751V629.934H922.583L924.159 628.538Z" fill="var(--fill-0, #1B1B1B)"/>
<path id="Line_5" fill-rule="evenodd" clip-rule="evenodd" d="M2.48382 628.538H4.0759L5.65222 629.934H2.48382V628.538Z" fill="var(--fill-0, #1B1B1B)"/>
</g>
</svg>
