<svg preserveAspectRatio="none" width="100%" height="100%" overflow="visible" style="display: block;" viewBox="0 0 70 10" fill="none" xmlns="http://www.w3.org/2000/svg">
<path id="MacBook Pro Copy" fill-rule="evenodd" clip-rule="evenodd" d="M8.98996 9.0142H7.72767V2.38005H7.68457L5.00605 8.94548H3.98391L1.29923 2.38005H1.25613V9.0142H0V0H1.59479L4.47035 7.11516H4.51961L7.38901 0H8.98996V9.0142ZM12.4443 8.05839C13.3741 8.05839 14.1007 7.40872 14.1007 6.5529V6.03441L12.5059 6.13436C11.7116 6.19058 11.2621 6.54665 11.2621 7.10887C11.2621 7.68358 11.7301 8.05839 12.4443 8.05839ZM12.0749 9.12655C10.8065 9.12655 9.91981 8.32696 9.91981 7.1463C9.91981 5.99688 10.788 5.29099 12.3274 5.20353L14.1008 5.09734V4.59134C14.1008 3.86046 13.6143 3.42318 12.8015 3.42318C12.0318 3.42318 11.5516 3.79799 11.4346 4.3852H10.1784C10.2523 3.1983 11.2498 2.32374 12.8508 2.32374C14.421 2.32374 15.4246 3.16706 15.4246 4.48515V9.01411H14.15V7.93341H14.1192C13.7436 8.66429 12.9247 9.12655 12.0749 9.12655ZM22.1497 4.70355H20.8813C20.7458 4.0039 20.2286 3.44794 19.3604 3.44794C18.3321 3.44794 17.6547 4.31625 17.6547 5.72803C17.6547 7.17106 18.3382 8.00813 19.3727 8.00813C20.1916 8.00813 20.7273 7.55211 20.8813 6.79H22.162C22.0204 8.18929 20.9182 9.13881 19.3604 9.13881C17.507 9.13881 16.3001 7.85196 16.3001 5.72803C16.3001 3.64159 17.507 2.3235 19.348 2.3235C21.0167 2.3235 22.0327 3.41045 22.1497 4.70355ZM26.7069 9.01407H23.1417V-0.000133295H26.6884C28.2647 -0.000133295 29.2992 0.886919 29.2992 2.24873C29.2992 3.2045 28.6034 4.06032 27.7167 4.21024V4.26022C28.9236 4.39765 29.7364 5.26596 29.7364 6.46535C29.7364 8.05205 28.5972 9.01407 26.7069 9.01407ZM24.5209 1.14347V3.83586H26.0664C27.2609 3.83586 27.9198 3.33612 27.9198 2.44282C27.9198 1.60574 27.3533 1.14347 26.3558 1.14347H24.5209ZM24.5209 7.87107H26.4235C27.6673 7.87107 28.3262 7.35259 28.3262 6.37808C28.3262 5.40357 27.6489 4.90382 26.3435 4.90382H24.5209V7.87107ZM33.4251 9.13881C31.5716 9.13881 30.3525 7.84572 30.3525 5.72803C30.3525 3.6166 31.5778 2.3235 33.4251 2.3235C35.2723 2.3235 36.4976 3.6166 36.4976 5.72803C36.4976 7.84572 35.2785 9.13881 33.4251 9.13881ZM33.4252 8.02748C34.472 8.02748 35.1431 7.1904 35.1431 5.72864C35.1431 4.27313 34.4658 3.43605 33.4252 3.43605C32.3846 3.43605 31.7072 4.27313 31.7072 5.72864C31.7072 7.1904 32.3846 8.02748 33.4252 8.02748ZM40.1864 9.13881C38.333 9.13881 37.1139 7.84572 37.1139 5.72803C37.1139 3.6166 38.3392 2.3235 40.1864 2.3235C42.0337 2.3235 43.259 3.6166 43.259 5.72803C43.259 7.84572 42.0399 9.13881 40.1864 9.13881ZM40.1866 8.02748C41.2334 8.02748 41.9045 7.1904 41.9045 5.72864C41.9045 4.27313 41.2272 3.43605 40.1866 3.43605C39.146 3.43605 38.4686 4.27313 38.4686 5.72864C38.4686 7.1904 39.146 8.02748 40.1866 8.02748ZM45.5565 5.25971L48.1734 2.44238H49.7374L47.0528 5.2722L49.8421 9.01407H48.2966L46.0983 6.09679L45.5442 6.65276V9.01407H44.2141V-0.000133295H45.5442V5.25971H45.5565ZM52.9954 -0.000133295H56.3266C58.0507 -0.000133295 59.2514 1.20551 59.2514 2.96087C59.2514 4.72248 58.0261 5.93437 56.2835 5.93437H54.3747V9.01407H52.9954V-0.000133295ZM54.3747 1.18096V4.76041H55.9572C57.1579 4.76041 57.8414 4.10449 57.8414 2.96756C57.8414 1.83064 57.1579 1.18096 55.9633 1.18096H54.3747ZM60.1755 9.0145V2.44282H61.444V3.56101H61.4748C61.6903 2.79264 62.2691 2.33663 63.0326 2.33663C63.2235 2.33663 63.3897 2.36786 63.4883 2.3866V3.64222C63.3836 3.59849 63.1496 3.56725 62.891 3.56725C62.0351 3.56725 61.5055 4.14821 61.5055 5.07899V9.0145H60.1755ZM66.6968 9.13881C64.8434 9.13881 63.6242 7.84572 63.6242 5.72803C63.6242 3.6166 64.8495 2.3235 66.6968 2.3235C68.5441 2.3235 69.7694 3.6166 69.7694 5.72803C69.7694 7.84572 68.5502 9.13881 66.6968 9.13881ZM66.6968 8.02748C67.7436 8.02748 68.4148 7.1904 68.4148 5.72864C68.4148 4.27313 67.7374 3.43605 66.6968 3.43605C65.6562 3.43605 64.9789 4.27313 64.9789 5.72864C64.9789 7.1904 65.6562 8.02748 66.6968 8.02748Z" fill="url(#paint0_radial_1_383)"/>
<defs>
<radialGradient id="paint0_radial_1_383" cx="0" cy="0" r="1" gradientUnits="userSpaceOnUse" gradientTransform="translate(34.8847 6.14446) rotate(90) scale(42.2115 322.26)">
<stop stop-color="#868B95"/>
<stop offset="1" stop-color="#5B5E65"/>
</radialGradient>
</defs>
</svg>
