<svg preserveAspectRatio="none" width="100%" height="100%" overflow="visible" style="display: block;" viewBox="0 0 288 62" fill="none" xmlns="http://www.w3.org/2000/svg">
<g id="vmware.svg" clip-path="url(#clip0_1_365)">
<path id="Vector" d="M287.938 0H0V61.7009H287.938V0Z" fill="var(--fill-0, white)"/>
<path id="Vector_2" d="M0.431196 19.601C1.27465 17.9504 3.39616 17.1327 5.14323 17.7126C6.23599 18.0583 7.12241 18.9371 7.53984 19.9974C9.87245 25.5128 12.2155 31.0243 14.5472 36.5397C14.6112 36.4221 14.6724 36.3027 14.7258 36.1796C16.5178 31.9318 18.3241 27.6887 20.1247 23.4438C20.9873 21.4484 22.3818 19.602 24.3324 18.5712C25.4166 17.9924 26.6296 17.6752 27.8503 17.575C31.0092 17.2302 34.2216 18.7356 36.1942 21.1847C38.0272 19.6134 40.1429 18.277 42.5224 17.7384C43.809 17.4413 45.1453 17.4986 46.4464 17.6581C48.073 17.8692 49.6806 18.43 50.9884 19.4387C51.6475 19.9343 52.2148 20.5419 52.7277 21.1857C54.9868 19.0021 58.0378 17.5598 61.2081 17.5273C63.2284 17.4843 65.2706 18.0211 66.9709 19.1234C68.9281 20.369 70.3761 22.3864 70.9024 24.6493C71.1604 25.6933 71.1719 26.7755 71.169 27.8444C71.169 32.4294 71.1681 37.0144 71.1699 41.5994C71.1575 42.2098 71.1347 42.8287 70.9665 43.42C70.6723 44.5519 69.9206 45.6026 68.8268 46.0726C67.287 46.7451 65.2572 46.493 64.1377 45.1671C63.236 44.1479 63.0086 42.7275 63.0478 41.4093C63.0498 37.1433 63.0478 32.8774 63.0487 28.6114C63.0478 27.5044 62.6409 26.3734 61.8251 25.6064C61.0792 24.8928 60.0389 24.5404 59.0159 24.5327C57.8792 24.5041 56.7033 24.8642 55.8666 25.6551C55.0623 26.4049 54.6306 27.512 54.6382 28.6047C54.6382 32.9997 54.6391 37.3936 54.6373 41.7885C54.6315 42.9272 54.3689 44.1116 53.6419 45.0152C53.0678 45.7555 52.1938 46.2398 51.2702 46.3725C50.2394 46.5225 49.1247 46.3716 48.2583 45.765C47.4779 45.2311 46.9612 44.3771 46.7186 43.4744C46.4702 42.6176 46.5113 41.7169 46.5103 40.8352C46.5103 36.7593 46.5094 32.6844 46.5113 28.6085C46.5017 27.5951 46.1684 26.5625 45.4816 25.8041C44.7117 24.9387 43.533 24.5203 42.3915 24.5318C41.2424 24.5231 40.0551 24.911 39.2413 25.7449C38.4618 26.5138 38.0845 27.6218 38.0864 28.7041C38.0864 33.1305 38.0854 37.5579 38.0864 41.9844C38.0787 43.1019 37.7597 44.2539 37.0252 45.1164C36.4864 45.7603 35.7156 46.1948 34.8922 46.3449C33.7097 46.5636 32.3896 46.362 31.4562 45.5607C30.4294 44.6885 29.9882 43.3016 29.9843 41.9873C29.9805 36.6018 29.9843 31.2173 29.9824 25.8327C29.9929 25.4115 29.7875 24.9865 29.4245 24.7639C28.8696 24.3914 27.9955 24.5709 27.73 25.2138C25.2045 30.7157 22.6751 36.2159 20.1534 41.7198C19.6041 42.865 19.0242 44.0246 18.1531 44.9646C17.5188 45.6504 16.6735 46.1433 15.7517 46.3143C14.3036 46.5913 12.6865 46.3926 11.5088 45.4469C10.265 44.4469 9.54769 42.974 8.89241 41.5564C6.03825 35.3399 3.17455 29.1282 0.325168 22.9108C-0.131421 21.8648 -0.117093 20.6107 0.431196 19.601Z" fill="var(--fill-0, #050038)"/>
<path id="Vector_3" d="M166.767 18.475C168.645 17.964 170.637 17.9086 172.549 18.262C174.67 18.6527 176.683 19.6471 178.255 21.1267C181.206 23.8662 182.595 27.987 182.532 31.9529C182.481 32.8757 181.644 33.6867 180.714 33.6685C174.232 33.6705 167.749 33.6676 161.267 33.6695C161.415 35.5474 162.026 37.4063 163.097 38.9623C164.156 40.505 165.712 41.7009 167.481 42.3113C169.307 42.9617 171.316 42.998 173.199 42.5835C174.992 42.1851 176.652 41.2758 178.029 40.0685C178.345 39.799 178.636 39.4743 179.041 39.3348C179.741 39.0674 180.585 39.354 181.017 39.9585C181.489 40.5737 181.448 41.5222 180.912 42.0868C179.59 43.4279 178.042 44.5722 176.3 45.3058C174.529 46.0595 172.595 46.3661 170.677 46.3756C168.659 46.3823 166.629 45.964 164.808 45.0871C161.648 43.6084 159.189 40.7772 158.066 37.4856C157.248 35.1711 157.049 32.6665 157.315 30.2355C157.699 26.8674 159.208 23.5825 161.727 21.2804C163.154 19.9641 164.893 18.987 166.767 18.475ZM166.774 22.1249C165.135 22.8479 163.783 24.1384 162.868 25.6687C161.946 27.176 161.442 28.9116 161.249 30.6596C161.716 30.6921 162.185 30.6691 162.654 30.6758C167.941 30.6778 173.228 30.6711 178.514 30.6787C178.523 30.2203 178.429 29.7693 178.358 29.3185C178.028 27.5008 177.334 25.7155 176.154 24.2769C175.105 22.9807 173.616 22.0494 171.991 21.6759C170.263 21.2853 168.4 21.3951 166.774 22.1249Z" fill="var(--fill-0, #050038)"/>
<path id="Vector_4" d="M74.387 18.1804C75.0556 17.9951 75.8389 18.1384 76.3375 18.6398C76.6279 18.9131 76.8342 19.2646 76.968 19.6381C79.2796 26.3226 81.5844 33.01 83.8865 39.6984C84.217 38.9026 84.4568 38.0707 84.7577 37.2626C86.7875 31.389 88.822 25.5184 90.8624 19.6485C91.0887 18.9675 91.5998 18.3237 92.3295 18.1642C93.0451 18.0152 93.8694 18.0954 94.4367 18.595C94.7959 18.8997 95.0185 19.3276 95.1723 19.7661C97.3463 26.0714 99.5117 32.3805 101.682 38.6877C101.81 39.023 101.893 39.3765 102.055 39.6993C104.395 32.9594 106.745 26.2223 109.096 19.4871C109.275 19.0067 109.591 18.5549 110.057 18.318C110.753 17.9627 111.651 18.0543 112.263 18.5396C112.832 18.9714 113.113 19.747 112.936 20.4414C112.806 20.9524 112.608 21.4425 112.433 21.9382C109.902 28.9857 107.351 36.0275 104.816 43.074C104.615 43.6099 104.443 44.1573 104.219 44.6845C103.916 45.3531 103.342 45.9454 102.606 46.1068C101.898 46.2453 101.094 46.1374 100.549 45.6302C99.9531 45.1096 99.7725 44.311 99.5166 43.5975C97.3635 37.3791 95.199 31.1645 93.0412 24.948C93.0144 24.8946 92.96 24.7885 92.9333 24.7351C92.0793 27.0686 91.2884 29.427 90.4555 31.7692C89.0351 35.823 87.6166 39.8779 86.201 43.9346C86.0052 44.4963 85.8293 45.099 85.3881 45.527C84.8045 46.1565 83.8368 46.295 83.043 46.0467C82.2693 45.7983 81.7363 45.0924 81.4775 44.3493C78.7342 36.6885 75.9736 29.0344 73.2322 21.3727C73.0803 20.9314 72.8854 20.4862 72.9093 20.0106C72.9045 19.1567 73.5761 18.3886 74.387 18.1804Z" fill="var(--fill-0, #050038)"/>
<path id="Vector_5" d="M122.909 18.1984C125.084 18.0465 127.3 18.0331 129.432 18.5461C131.04 18.9291 132.594 19.6379 133.837 20.7421C135.321 22.0192 136.267 23.8332 136.689 25.7282C137.165 27.7046 137.012 29.7477 137.038 31.7604C137.038 35.9013 137.036 40.042 137.039 44.1838C137.053 44.7999 136.779 45.4246 136.286 45.8019C135.699 46.2585 134.857 46.2996 134.189 46.0035C133.561 45.7246 133.147 45.0559 133.14 44.3739C133.131 43.4904 133.155 42.6067 133.13 41.7232C132.143 42.9268 130.99 44.01 129.627 44.7771C127.772 45.8497 125.622 46.3703 123.485 46.376C121.325 46.4286 119.134 45.9404 117.243 44.8802C115.708 44.0147 114.394 42.6975 113.696 41.0641C112.973 39.4145 112.906 37.5356 113.265 35.7875C113.643 33.9822 114.719 32.3469 116.208 31.2618C118.088 29.8758 120.421 29.2577 122.716 29.0361C126.215 28.7515 129.764 29.1269 133.135 30.106C133.195 28.3265 133.04 26.4427 132.073 24.8972C131.292 23.5992 129.986 22.6793 128.557 22.2217C127.386 21.8396 126.147 21.6916 124.919 21.7154C123.247 21.6897 121.553 21.8655 119.968 22.4223C119.455 22.5904 118.97 22.8302 118.465 23.0155C117.786 23.262 116.991 23.0183 116.53 22.4758C115.832 21.7049 116.003 20.2779 116.962 19.7984C118.822 18.9005 120.849 18.3513 122.909 18.1984ZM121.692 32.3736C120.345 32.7424 119.016 33.4186 118.161 34.5563C117.289 35.6835 117.029 37.1936 117.251 38.5796C117.457 39.8672 118.231 41.0316 119.298 41.7728C120.968 42.9659 123.11 43.2917 125.118 43.1121C127.186 42.9296 129.244 42.1884 130.821 40.8139C132.203 39.6266 133.118 37.8814 133.183 36.0493C133.194 35.0759 133.187 34.1026 133.185 33.1302C131.479 32.6163 129.723 32.2772 127.952 32.0947C125.869 31.9028 123.731 31.8244 121.692 32.3736Z" fill="var(--fill-0, #050038)"/>
<path id="Vector_6" d="M141.985 20.1058C141.969 19.055 142.875 18.0797 143.932 18.0578C145.025 17.9832 146.046 18.9146 146.07 20.0111C146.087 21.5787 146.07 23.148 146.076 24.7166C146.414 24.1367 146.693 23.5225 147.088 22.9761C148.757 20.5528 151.37 18.7398 154.283 18.2153C155.031 18.1075 155.864 17.9661 156.55 18.3768C157.756 19.0559 157.846 21.017 156.734 21.827C156.255 22.2196 155.622 22.253 155.039 22.3437C152.962 22.7077 150.96 23.6562 149.471 25.1674C148.232 26.3824 147.358 27.9374 146.823 29.5814C146.248 31.359 146.041 33.2407 146.076 35.1044C146.076 38.0655 146.075 41.0267 146.076 43.9878C146.083 44.5524 145.876 45.1264 145.471 45.5257C144.978 46.0453 144.188 46.2402 143.503 46.0472C142.831 45.8858 142.274 45.3433 142.079 44.6841C141.948 44.3059 141.99 43.9018 141.986 43.5102C141.986 35.709 141.987 27.9078 141.985 20.1058Z" fill="var(--fill-0, #050038)"/>
</g>
<defs>
<clipPath id="clip0_1_365">
<rect width="287.938" height="61.7009" fill="white"/>
</clipPath>
</defs>
</svg>
